<svg class="border shadow-md" viewBox="0 0 1268.7644444444445 713.68" style="width: 1268.764444px; height: 713.68px;" xmlns="http://www.w3.org/2000/svg" preserveAspectRatio="none"><rect class="bg" id="bg" x="0" y="0" width="1268.7644444444445" height="713.68" fill="#ffffff"></rect><g transform="translate(-446.04999999999995 -446.04999999999995)"><path d="M677.5,605.5Q630,765,463,735Q296,705,173,575.5Q50,446,177.5,324Q305,202,477.5,147Q650,92,687.5,269Q725,446,677.5,605.5Z" fill="none" stroke="#68c495" stroke-width="19"></path></g><g transform="translate(-446.04999999999995 267.63)"><path d="M738.5,638.5Q668,831,451.5,821.5Q235,812,136,629Q37,446,156,298Q275,150,455,134.5Q635,119,722,282.5Q809,446,738.5,638.5Z" fill="none" stroke="#68c495" stroke-width="19"></path></g><g transform="translate(822.7144444444446 -446.04999999999995)"><path d="M697.5,608.5Q634,771,435,790Q236,809,135.5,627.5Q35,446,160,306.5Q285,167,441,176Q597,185,679,315.5Q761,446,697.5,608.5Z" fill="none" stroke="#68c495" stroke-width="19"></path></g><g transform="translate(822.7144444444446 267.63)"><path d="M687.5,567Q586,688,422.5,729Q259,770,189.5,608Q120,446,198,299Q276,152,438,165.5Q600,179,694.5,312.5Q789,446,687.5,567Z" fill="none" stroke="#68c495" stroke-width="19"></path></g></svg>