<svg id="Layer_1" data-name="Layer 1" xmlns="http://www.w3.org/2000/svg" viewBox="0 0 214.11 75.13"><defs><style>.cls-1{fill:#fff;}.cls-2{fill:#1b5eaa;}.cls-3{fill:#1d1d1b;}</style></defs><title>GOSH FT_Logo_Colour_RGB</title><rect class="cls-1" x="65.55" y="9.4" width="50.78" height="19.16"/><path class="cls-2" d="M65.76,29.31h51.48V9.38H65.76Zm45.52-18.89a14.3,14.3,0,0,1,5.34.77l-1.12,3.46a8.72,8.72,0,0,0-3.85-.8c-1.84,0-3.34.27-3.34,1.67,0,2.45,6.76,1.54,6.76,6.8,0,4.79-4.47,6-8.51,6a19.61,19.61,0,0,1-5.39-.9l1.1-3.53a9.06,9.06,0,0,0,4.29,1c1.45,0,3.72-.28,3.72-2.06,0-2.79-6.77-1.74-6.77-6.63C103.51,11.76,107.46,10.42,111.28,10.42ZM93,10.72l-1.37,6.63h5.52l1.37-6.63h4.67L99.6,28.06H94.93l1.55-7.43H91l-1.55,7.43H84.74l3.63-17.34Zm-22.66,0h5.81l3.57,12h0l2.45-12h4.39L83,28.06H77.16l-3.65-12h-.05L71,28.06H66.65Z" transform="translate(-0.59 -0.37)"/><path class="cls-3" d="M71.92,38.15a3.71,3.71,0,0,0-2.85,1.09,3.92,3.92,0,0,0-1,2.75,3.79,3.79,0,0,0,1,2.69,3.37,3.37,0,0,0,2.64,1.1,4.85,4.85,0,0,0,1.4-.16V42.86H70.82V41.19h4.29V46.9a12.73,12.73,0,0,1-3.44.55,6.29,6.29,0,0,1-4.18-1.32,4.84,4.84,0,0,1-1.64-4q.11-5.6,5.82-5.66a10.3,10.3,0,0,1,3.12.44l-.14,1.79a7.06,7.06,0,0,0-2.73-.56" transform="translate(-0.59 -0.37)"/><path class="cls-3" d="M77.2,39.44H79v1.78h0A2.52,2.52,0,0,1,79.71,40a1.93,1.93,0,0,1,1.48-.7,3.34,3.34,0,0,1,.62.06v2a2,2,0,0,0-.91-.17,1.27,1.27,0,0,0-1,.34,2,2,0,0,0-.5.83,4.35,4.35,0,0,0-.18,1c0,.35,0,.68,0,1v2.88h-2Z" transform="translate(-0.59 -0.37)"/><path class="cls-3" d="M89.07,46.83a5.35,5.35,0,0,1-2.69.62q-4-.06-4.09-4.06a4.66,4.66,0,0,1,.92-2.93,3.29,3.29,0,0,1,2.72-1.2,3.25,3.25,0,0,1,3,1.32,6.49,6.49,0,0,1,.76,3.4H84.24a2,2,0,0,0,.68,1.45,2.31,2.31,0,0,0,1.55.53,4,4,0,0,0,1.4-.24,6.57,6.57,0,0,0,1.2-.55ZM87.7,42.59a2.26,2.26,0,0,0-.41-1.3,1.47,1.47,0,0,0-1.24-.54,1.7,1.7,0,0,0-1.29.51,2.18,2.18,0,0,0-.52,1.33Z" transform="translate(-0.59 -0.37)"/><path class="cls-3" d="M91.59,39.85a7,7,0,0,1,2.72-.59q3.42,0,3.38,3.29v1c0,.76,0,1.41,0,2s0,1.16.09,1.75H96a9.85,9.85,0,0,1-.09-1.17h0a2.51,2.51,0,0,1-1,1,2.85,2.85,0,0,1-1.4.37,3.12,3.12,0,0,1-1.87-.61,2,2,0,0,1-.87-1.72,2.37,2.37,0,0,1,.4-1.43,2.2,2.2,0,0,1,.94-.8,4.46,4.46,0,0,1,1.29-.38,12.64,12.64,0,0,1,1.34-.08h1.12a1.73,1.73,0,0,0-.42-1.32,2.06,2.06,0,0,0-1.34-.36,3.87,3.87,0,0,0-2.41.85ZM92.69,45a.79.79,0,0,0,.38.72A1.58,1.58,0,0,0,94,46a1.68,1.68,0,0,0,1.43-.7,2.85,2.85,0,0,0,.42-1.61H94.6a2.19,2.19,0,0,0-.36,0,3.16,3.16,0,0,0-.75.18,1.3,1.3,0,0,0-.56.41,1.07,1.07,0,0,0-.24.73" transform="translate(-0.59 -0.37)"/><path class="cls-3" d="M100.36,40.93h-1.5V39.44h1.5V37.87l2-.65v2.22h1.81v1.49H102.4v3.65a1.57,1.57,0,0,0,.2.88.79.79,0,0,0,.76.41,1.67,1.67,0,0,0,.92-.22l.06,1.62a5.3,5.3,0,0,1-1.5.18,2.26,2.26,0,0,1-2.48-2.54Z" transform="translate(-0.59 -0.37)"/><path class="cls-3" d="M109.5,41.93a5.65,5.65,0,0,1,1.33-4,5.69,5.69,0,0,1,7.72,0,5.62,5.62,0,0,1,1.34,3.93,5.87,5.87,0,0,1-1.32,4,5.58,5.58,0,0,1-7.74,0,5.74,5.74,0,0,1-1.33-4m2.21,0a4.81,4.81,0,0,0,.69,2.63,2.51,2.51,0,0,0,2.29,1.22,2.76,2.76,0,0,0,1.4-.34,2.41,2.41,0,0,0,.91-.88,5.07,5.07,0,0,0,.67-2.63,5,5,0,0,0-.68-2.6,2.56,2.56,0,0,0-2.3-1.18,2.49,2.49,0,0,0-2.26,1.18,4.73,4.73,0,0,0-.72,2.6" transform="translate(-0.59 -0.37)"/><path class="cls-3" d="M121.7,39.44h1.81v1.78h0A2.49,2.49,0,0,1,124.2,40a1.93,1.93,0,0,1,1.48-.7,3.34,3.34,0,0,1,.62.06v2a2,2,0,0,0-.91-.17,1.23,1.23,0,0,0-.94.34,1.87,1.87,0,0,0-.5.83,3.91,3.91,0,0,0-.19,1c0,.35,0,.68,0,1v2.88h-2Z" transform="translate(-0.59 -0.37)"/><path class="cls-3" d="M127.53,39.44h1.9v1.09h0a2.93,2.93,0,0,1,1.13-1,3,3,0,0,1,1.2-.27,2.34,2.34,0,0,1,2.31,1.38,2.34,2.34,0,0,1,1.06-1,3,3,0,0,1,1.38-.33,2.22,2.22,0,0,1,2,.86,4.18,4.18,0,0,1,.5,2.21v4.94h-2V42.6a4,4,0,0,0-.13-1.15,1,1,0,0,0-.34-.45,1.23,1.23,0,0,0-.7-.16,1.13,1.13,0,0,0-.79.26,1.51,1.51,0,0,0-.47.66,3.41,3.41,0,0,0-.19.84,6.92,6.92,0,0,0-.07.87v3.8h-2V42.6a4,4,0,0,0-.14-1.15,1,1,0,0,0-.33-.45,1.25,1.25,0,0,0-.7-.16,1.09,1.09,0,0,0-.79.26,1.51,1.51,0,0,0-.47.66,3.43,3.43,0,0,0-.2.84,6.82,6.82,0,0,0-.06.87v3.8h-2Z" transform="translate(-0.59 -0.37)"/><path class="cls-3" d="M140.57,43.41a4,4,0,0,1,1.19-3.06,4.09,4.09,0,0,1,2.9-1.09,4.14,4.14,0,0,1,2.93,1.09,4.06,4.06,0,0,1,1.17,3.06,4.1,4.1,0,1,1-8.19,0m2.13-.25a3.55,3.55,0,0,0,0,.46c0,.17,0,.33.07.48a3.46,3.46,0,0,0,.31.89,1.65,1.65,0,0,0,.61.62,1.59,1.59,0,0,0,.94.26,1.82,1.82,0,0,0,1-.25,1.7,1.7,0,0,0,.6-.62,2.37,2.37,0,0,0,.31-.88,6,6,0,0,0,.07-1,2.72,2.72,0,0,0-.47-1.62,1.76,1.76,0,0,0-1.5-.7,1.7,1.7,0,0,0-1.46.71,2.68,2.68,0,0,0-.5,1.61" transform="translate(-0.59 -0.37)"/><path class="cls-3" d="M150.36,39.44h1.93V40.5h0a3,3,0,0,1,2.57-1.24,2.44,2.44,0,0,1,2,.86,3.64,3.64,0,0,1,.63,2.21v4.94h-2V43.09c0-.26,0-.51,0-.78a2,2,0,0,0-.15-.71A1.06,1.06,0,0,0,155,41a1.28,1.28,0,0,0-.77-.2,1.34,1.34,0,0,0-.88.26,1.93,1.93,0,0,0-.55.65,3.32,3.32,0,0,0-.28.84,4.32,4.32,0,0,0-.09.85v3.83h-2Z" transform="translate(-0.59 -0.37)"/><path class="cls-3" d="M164.85,46.38h0a3,3,0,0,1-2.4,1.07,2.82,2.82,0,0,1-2.54-1.26,5.9,5.9,0,0,1,0-5.72,3.17,3.17,0,0,1,4.88-.12h0V35.87h2v11.4h-2Zm-3.58-3.05a3.81,3.81,0,0,0,.36,1.67,1.83,1.83,0,0,0,.53.61,1.3,1.3,0,0,0,.82.26,1.39,1.39,0,0,0,.87-.26,1.78,1.78,0,0,0,.55-.61,2.88,2.88,0,0,0,.3-.82,5.08,5.08,0,0,0,.08-.85,3.55,3.55,0,0,0-.41-1.66,1.82,1.82,0,0,0-.57-.6,1.44,1.44,0,0,0-.85-.23,1.41,1.41,0,0,0-1.33.83,3,3,0,0,0-.26.81,4.24,4.24,0,0,0-.09.85" transform="translate(-0.59 -0.37)"/><path class="cls-3" d="M176.87,38.15a2.48,2.48,0,0,0-.54.06,1.4,1.4,0,0,0-.55.23,1.2,1.2,0,0,0-.41.45,1.46,1.46,0,0,0-.17.73.76.76,0,0,0,.22.56,1.87,1.87,0,0,0,.53.41,4.84,4.84,0,0,0,.76.34l.83.35a6,6,0,0,1,.85.39,3,3,0,0,1,.75.6,2.86,2.86,0,0,1,.53.8,3.43,3.43,0,0,1,.18,1.17,2.76,2.76,0,0,1-1.17,2.46,5,5,0,0,1-2.81.75,6.67,6.67,0,0,1-1.38-.12L173.15,47l.2-1.92a4.87,4.87,0,0,0,2.4.66,2.59,2.59,0,0,0,1.26-.34,1.12,1.12,0,0,0,.62-1,1.21,1.21,0,0,0-.18-.66,1.79,1.79,0,0,0-.53-.45,14.42,14.42,0,0,0-1.6-.7,5,5,0,0,1-.83-.43,4,4,0,0,1-.76-.54,2.91,2.91,0,0,1-.53-.81,2.68,2.68,0,0,1-.22-1.11,2.87,2.87,0,0,1,1.17-2.52,4.52,4.52,0,0,1,2.54-.71,8,8,0,0,1,2.54.38L179,38.6a5.64,5.64,0,0,0-2.16-.45" transform="translate(-0.59 -0.37)"/><path class="cls-3" d="M182.27,40.93h-1.51V39.44h1.51V37.87l2-.65v2.22h1.81v1.49H184.3v3.65a1.66,1.66,0,0,0,.2.88.8.8,0,0,0,.76.41,1.69,1.69,0,0,0,.93-.22l.06,1.62a5.4,5.4,0,0,1-1.5.18,2.26,2.26,0,0,1-2.48-2.54Z" transform="translate(-0.59 -0.37)"/><path class="cls-3" d="M187.56,39.44h1.81v1.78h0a2.49,2.49,0,0,1,.66-1.26,1.93,1.93,0,0,1,1.48-.7,3.34,3.34,0,0,1,.62.06v2a2,2,0,0,0-.91-.17,1.23,1.23,0,0,0-.94.34,1.87,1.87,0,0,0-.5.83,3.91,3.91,0,0,0-.19,1c0,.35,0,.68,0,1v2.88h-2Z" transform="translate(-0.59 -0.37)"/><path class="cls-3" d="M199.43,46.83a5.38,5.38,0,0,1-2.69.62q-4.05-.06-4.09-4.06a4.65,4.65,0,0,1,.91-2.93,3.31,3.31,0,0,1,2.72-1.2,3.24,3.24,0,0,1,3,1.32A6.49,6.49,0,0,1,200,44h-5.41a2,2,0,0,0,.69,1.45,2.28,2.28,0,0,0,1.55.53,4,4,0,0,0,1.39-.24,7,7,0,0,0,1.21-.55Zm-1.37-4.24a2.33,2.33,0,0,0-.41-1.3,1.51,1.51,0,0,0-1.25-.54,1.7,1.7,0,0,0-1.29.51,2.24,2.24,0,0,0-.52,1.33Z" transform="translate(-0.59 -0.37)"/><path class="cls-3" d="M207.87,46.83a5.35,5.35,0,0,1-2.69.62q-4-.06-4.08-4.06a4.65,4.65,0,0,1,.91-2.93,3.31,3.31,0,0,1,2.72-1.2,3.25,3.25,0,0,1,3,1.32,6.49,6.49,0,0,1,.76,3.4H203a2,2,0,0,0,.69,1.45,2.28,2.28,0,0,0,1.55.53,4,4,0,0,0,1.39-.24,6.57,6.57,0,0,0,1.2-.55Zm-1.36-4.24a2.33,2.33,0,0,0-.41-1.3,1.51,1.51,0,0,0-1.25-.54,1.7,1.7,0,0,0-1.29.51,2.18,2.18,0,0,0-.52,1.33Z" transform="translate(-0.59 -0.37)"/><path class="cls-3" d="M210.72,40.93h-1.51V39.44h1.51V37.87l2-.65v2.22h1.81v1.49h-1.81v3.65a1.66,1.66,0,0,0,.2.88.79.79,0,0,0,.76.41,1.73,1.73,0,0,0,.93-.22l.06,1.62a5.43,5.43,0,0,1-1.51.18,2.26,2.26,0,0,1-2.47-2.54Z" transform="translate(-0.59 -0.37)"/><polygon class="cls-3" points="65.78 51.74 67.91 51.74 67.91 56.02 72.16 56.02 72.16 51.74 74.29 51.74 74.29 62.35 72.16 62.35 72.16 57.7 67.91 57.7 67.91 62.35 65.78 62.35 65.78 51.74"/><path class="cls-3" d="M76.66,58.85a4,4,0,0,1,1.18-3.05,4.1,4.1,0,0,1,2.9-1.09,4.15,4.15,0,0,1,2.94,1.09,4.1,4.1,0,0,1-2.94,7.1,3.89,3.89,0,0,1-4.08-4m2.12-.24a3.55,3.55,0,0,0,0,.46c0,.17,0,.33.08.48a3.11,3.11,0,0,0,.3.89,1.81,1.81,0,0,0,.61.62,1.63,1.63,0,0,0,.94.26,1.77,1.77,0,0,0,1-.25,1.65,1.65,0,0,0,.61-.62,2.55,2.55,0,0,0,.3-.88,6,6,0,0,0,.08-1A2.79,2.79,0,0,0,82.25,57a1.79,1.79,0,0,0-1.51-.7,1.67,1.67,0,0,0-1.45.71,2.62,2.62,0,0,0-.51,1.61" transform="translate(-0.59 -0.37)"/><path class="cls-3" d="M91.09,56.53a5.87,5.87,0,0,0-.85-.26,5.5,5.5,0,0,0-1-.07,1.89,1.89,0,0,0-.79.16.75.75,0,0,0-.41.7c0,.3.2.5.56.62a3.93,3.93,0,0,0,.58.2l.64.21a5.58,5.58,0,0,1,.67.28,2.79,2.79,0,0,1,.54.42,1.81,1.81,0,0,1,.41.63,2.74,2.74,0,0,1,.14.92,2.18,2.18,0,0,1-1,2,4.26,4.26,0,0,1-2.28.6A8.67,8.67,0,0,1,86,62.56l.12-1.67a4.13,4.13,0,0,0,2,.52,1.86,1.86,0,0,0,.86-.22.75.75,0,0,0,.47-.74.87.87,0,0,0-.13-.5,1.13,1.13,0,0,0-.41-.29c-.36-.14-.76-.27-1.22-.4a5.64,5.64,0,0,1-.64-.25,2.5,2.5,0,0,1-.58-.4,1.53,1.53,0,0,1-.39-.61,2,2,0,0,1-.17-.86,2.06,2.06,0,0,1,1-1.86A3.8,3.8,0,0,1,89,54.71a9.19,9.19,0,0,1,1.25.07c.34.06.67.13,1,.21Z" transform="translate(-0.59 -0.37)"/><path class="cls-3" d="M93.19,54.89h1.94V56h0a2.59,2.59,0,0,1,2.44-1.29,2.89,2.89,0,0,1,2.55,1.21,5.14,5.14,0,0,1,.73,2.86,5.21,5.21,0,0,1-.73,2.86,2.89,2.89,0,0,1-2.6,1.26,3.06,3.06,0,0,1-1.18-.23,3,3,0,0,1-1.11-.85h0v4.09h-2Zm3.87,1.4a1.52,1.52,0,0,0-1.39.83,3.34,3.34,0,0,0-.43,1.66,3.39,3.39,0,0,0,.41,1.67,2,2,0,0,0,.55.61,1.33,1.33,0,0,0,.83.26,1.44,1.44,0,0,0,.86-.26,1.67,1.67,0,0,0,.51-.61,3.34,3.34,0,0,0,.29-.84,6.12,6.12,0,0,0,.06-.83,4.35,4.35,0,0,0-.33-1.66,1.62,1.62,0,0,0-.52-.61,1.46,1.46,0,0,0-.84-.22" transform="translate(-0.59 -0.37)"/><path class="cls-3" d="M102.52,51.51h2v2h-2Zm0,3.38h2v7.82h-2Z" transform="translate(-0.59 -0.37)"/><path class="cls-3" d="M107.37,56.38h-1.51V54.89h1.51V53.32l2-.65v2.22h1.81v1.49H109.4V60a1.66,1.66,0,0,0,.2.88.8.8,0,0,0,.76.41,1.71,1.71,0,0,0,.93-.22l.06,1.62a5.43,5.43,0,0,1-1.51.18,2.26,2.26,0,0,1-2.47-2.54Z" transform="translate(-0.59 -0.37)"/><path class="cls-3" d="M113,55.3a6.76,6.76,0,0,1,2.72-.59q3.42,0,3.37,3.29v1c0,.76,0,1.41,0,2s0,1.16.09,1.74h-1.79a9.56,9.56,0,0,1-.09-1.17h0a2.43,2.43,0,0,1-1,1,2.79,2.79,0,0,1-1.4.37,3.19,3.19,0,0,1-1.87-.61,2,2,0,0,1-.86-1.72,2.42,2.42,0,0,1,.39-1.43,2.23,2.23,0,0,1,1-.8,4.28,4.28,0,0,1,1.29-.38,12.46,12.46,0,0,1,1.33-.08h1.13a1.67,1.67,0,0,0-.43-1.32,2,2,0,0,0-1.33-.36,3.9,3.9,0,0,0-2.42.85Zm1.09,5.15a.77.77,0,0,0,.38.71,1.54,1.54,0,0,0,.92.25,1.68,1.68,0,0,0,1.42-.7,2.78,2.78,0,0,0,.43-1.61H116l-.37,0a3,3,0,0,0-.74.18,1.3,1.3,0,0,0-.56.41,1,1,0,0,0-.25.73" transform="translate(-0.59 -0.37)"/><rect class="cls-3" x="120.52" y="50.95" width="2.04" height="11.4"/><path class="cls-3" d="M130.25,56.38h-1.5V54.89h1.5v-1.1a2.73,2.73,0,0,1,.66-1.92,2.32,2.32,0,0,1,1.84-.73,7.21,7.21,0,0,1,1.48.16L134.07,53a1.79,1.79,0,0,0-.34-.2,1.57,1.57,0,0,0-.54-.07.76.76,0,0,0-.7.36,1.74,1.74,0,0,0-.2.84v1h1.78v1.49h-1.78v6.34h-2Z" transform="translate(-0.59 -0.37)"/><path class="cls-3" d="M134.92,58.85a4,4,0,0,1,1.18-3.05,4.46,4.46,0,0,1,5.84,0,4.46,4.46,0,0,1,.1,5.91,4.1,4.1,0,0,1-7.12-2.86m2.13-.24a3.55,3.55,0,0,0,0,.46c0,.17,0,.33.07.48a2.85,2.85,0,0,0,.31.89,1.7,1.7,0,0,0,.6.62,1.64,1.64,0,0,0,.95.26,1.76,1.76,0,0,0,1-.25,1.65,1.65,0,0,0,.61-.62,2.79,2.79,0,0,0,.31-.88,6,6,0,0,0,.07-1,2.79,2.79,0,0,0-.47-1.62,1.77,1.77,0,0,0-1.5-.7,1.68,1.68,0,0,0-1.46.71,2.61,2.61,0,0,0-.5,1.61" transform="translate(-0.59 -0.37)"/><path class="cls-3" d="M144.75,54.89h1.81v1.78h0a2.44,2.44,0,0,1,.67-1.26,1.89,1.89,0,0,1,1.47-.7,3.34,3.34,0,0,1,.62.06v2a2,2,0,0,0-.91-.17,1.25,1.25,0,0,0-.94.34,2,2,0,0,0-.5.83,4.36,4.36,0,0,0-.18,1q0,.54,0,1v2.87h-2Z" transform="translate(-0.59 -0.37)"/><path class="cls-3" d="M162.74,62.56a9.35,9.35,0,0,1-2.41.34,6.2,6.2,0,0,1-4.18-1.33,4.78,4.78,0,0,1-1.64-4q.11-5.6,5.82-5.66a7.11,7.11,0,0,1,2.4.44l-.16,1.79a4.58,4.58,0,0,0-1.15-.47,7.3,7.3,0,0,0-1.14-.09,3.25,3.25,0,0,0-2.58,1.09,4,4,0,0,0-1,2.75,3.79,3.79,0,0,0,1,2.69,3.38,3.38,0,0,0,2.65,1.1,6.39,6.39,0,0,0,1.3-.14,3.75,3.75,0,0,0,1-.31Z" transform="translate(-0.59 -0.37)"/><path class="cls-3" d="M164.12,51.32h2V56h0a2.84,2.84,0,0,1,2.46-1.24,2.47,2.47,0,0,1,2,.86,3.68,3.68,0,0,1,.62,2.21v4.93h-2V58.54c0-.26,0-.52,0-.78a2,2,0,0,0-.15-.71,1.13,1.13,0,0,0-.38-.57,1.36,1.36,0,0,0-.78-.19,1.43,1.43,0,0,0-.88.25,2.06,2.06,0,0,0-.54.66,2.71,2.71,0,0,0-.28.83,4.49,4.49,0,0,0-.09.86v3.82h-2Z" transform="translate(-0.59 -0.37)"/><path class="cls-3" d="M173.45,51.51h2v2h-2Zm0,3.38h2v7.82h-2Z" transform="translate(-0.59 -0.37)"/><rect class="cls-3" x="177.09" y="50.95" width="2.04" height="11.4"/><path class="cls-3" d="M187.07,61.83h0a3,3,0,0,1-2.4,1.07,2.81,2.81,0,0,1-2.54-1.26,5.21,5.21,0,0,1-.74-2.86,5.14,5.14,0,0,1,.74-2.86A3.17,3.17,0,0,1,187,55.8h0V51.32h2V62.71h-2Zm-3.59-3a3.83,3.83,0,0,0,.37,1.67,1.83,1.83,0,0,0,.53.61,1.28,1.28,0,0,0,.82.26,1.41,1.41,0,0,0,.87-.26,1.75,1.75,0,0,0,.54-.61,2.62,2.62,0,0,0,.31-.82,5,5,0,0,0,.07-.85,3.43,3.43,0,0,0-.41-1.66,2.05,2.05,0,0,0-.56-.61,1.51,1.51,0,0,0-.85-.22,1.43,1.43,0,0,0-1.34.83,3,3,0,0,0-.25.81,3.58,3.58,0,0,0-.1.85" transform="translate(-0.59 -0.37)"/><path class="cls-3" d="M191.19,54.89H193v1.78h0a2.44,2.44,0,0,1,.67-1.26,1.89,1.89,0,0,1,1.47-.7,3.34,3.34,0,0,1,.62.06v2a2,2,0,0,0-.91-.17,1.25,1.25,0,0,0-.94.34,2,2,0,0,0-.5.83,4.36,4.36,0,0,0-.18,1c0,.36,0,.69,0,1v2.87h-2Z" transform="translate(-0.59 -0.37)"/><path class="cls-3" d="M203.06,62.27a5.28,5.28,0,0,1-2.69.63c-2.7,0-4.06-1.4-4.09-4.06a4.65,4.65,0,0,1,.91-2.93,3.32,3.32,0,0,1,2.72-1.2,3.24,3.24,0,0,1,3,1.32,6.47,6.47,0,0,1,.76,3.4h-5.41a2,2,0,0,0,.69,1.45,2.28,2.28,0,0,0,1.55.53,3.86,3.86,0,0,0,1.4-.25,6.48,6.48,0,0,0,1.2-.54ZM201.69,58a2.33,2.33,0,0,0-.41-1.29A1.49,1.49,0,0,0,200,56.2a1.73,1.73,0,0,0-1.29.51,2.3,2.3,0,0,0-.52,1.32Z" transform="translate(-0.59 -0.37)"/><path class="cls-3" d="M205.23,54.89h1.93V56h0a3,3,0,0,1,2.57-1.24,2.44,2.44,0,0,1,2,.86,3.62,3.62,0,0,1,.63,2.21v4.93h-2V58.54c0-.26,0-.52,0-.78a2,2,0,0,0-.16-.71,1.07,1.07,0,0,0-.38-.57,1.35,1.35,0,0,0-.77-.19,1.39,1.39,0,0,0-.88.25,2,2,0,0,0-.55.66,3,3,0,0,0-.27.83,4.49,4.49,0,0,0-.09.86v3.82h-2Z" transform="translate(-0.59 -0.37)"/><polygon class="cls-2" points="65.3 67.94 67.04 67.94 69.74 73.23 69.76 73.23 69.76 67.94 71.11 67.94 71.11 75.01 69.38 75.01 66.68 69.72 66.66 69.72 66.66 75.01 65.3 75.01 65.3 67.94"/><polygon class="cls-2" points="72.69 67.94 74.1 67.94 74.1 70.8 76.94 70.8 76.94 67.94 78.36 67.94 78.36 75.01 76.94 75.01 76.94 71.91 74.1 71.91 74.1 75.01 72.69 75.01 72.69 67.94"/><path class="cls-2" d="M83,69.3a1.55,1.55,0,0,0-.37,0,1.14,1.14,0,0,0-.36.15.85.85,0,0,0-.28.31,1,1,0,0,0-.11.48.52.52,0,0,0,.15.38,1.41,1.41,0,0,0,.35.27,3,3,0,0,0,.51.22l.55.24a3.68,3.68,0,0,1,.57.26,2.16,2.16,0,0,1,.5.39,1.86,1.86,0,0,1,.35.54,2.28,2.28,0,0,1,.12.78A1.83,1.83,0,0,1,84.15,75a3.34,3.34,0,0,1-1.87.5,4.69,4.69,0,0,1-.92-.08l-.89-.19L80.6,74a3.34,3.34,0,0,0,1.6.44,1.71,1.71,0,0,0,.84-.23A.8.8,0,0,0,83.33,73a1.17,1.17,0,0,0-.35-.31,10.09,10.09,0,0,0-1.07-.46,3.6,3.6,0,0,1-.55-.29,2.61,2.61,0,0,1-.51-.36,1.86,1.86,0,0,1-.35-.54,1.68,1.68,0,0,1-.15-.74,2,2,0,0,1,.78-1.68,3,3,0,0,1,1.7-.47,5.44,5.44,0,0,1,1.69.25l-.13,1.16A4,4,0,0,0,83,69.3" transform="translate(-0.59 -0.37)"/><polygon class="cls-2" points="88.45 67.94 92.38 67.94 92.38 69.05 89.87 69.05 89.87 70.8 92.26 70.8 92.26 71.91 89.87 71.91 89.87 75.01 88.45 75.01 88.45 67.94"/><path class="cls-2" d="M93.65,72.8a2.64,2.64,0,0,1,.79-2A2.73,2.73,0,0,1,96.37,70a2.79,2.79,0,0,1,2,.73,2.73,2.73,0,0,1-2,4.73,2.64,2.64,0,0,1-2-.79,2.67,2.67,0,0,1-.72-1.91m1.41-.16a1.63,1.63,0,0,0,0,.31,3.06,3.06,0,0,0,0,.32,1.87,1.87,0,0,0,.2.59,1.12,1.12,0,0,0,.4.41,1,1,0,0,0,.63.18,1.22,1.22,0,0,0,.66-.17,1.24,1.24,0,0,0,.41-.41,1.87,1.87,0,0,0,.2-.59,4.48,4.48,0,0,0,0-.64,1.84,1.84,0,0,0-.32-1.08,1.17,1.17,0,0,0-1-.47,1.13,1.13,0,0,0-1,.48,1.77,1.77,0,0,0-.34,1.07" transform="translate(-0.59 -0.37)"/><path class="cls-2" d="M105,75.38h-1.28v-.71h0a2.13,2.13,0,0,1-1.72.83,1.54,1.54,0,0,1-1.33-.59,2.33,2.33,0,0,1-.44-1.46V70.16h1.36V73a.93.93,0,0,0,0,.23,2.09,2.09,0,0,0,0,.25,2,2,0,0,0,.09.5.88.88,0,0,0,.26.36.72.72,0,0,0,.5.16,1,1,0,0,0,.62-.2,1.13,1.13,0,0,0,.35-.43,1.42,1.42,0,0,0,.18-.56,3.56,3.56,0,0,0,0-.55V70.16H105Z" transform="translate(-0.59 -0.37)"/><path class="cls-2" d="M106.36,70.16h1.29v.71h0a2,2,0,0,1,1.71-.83,1.64,1.64,0,0,1,1.36.58,2.44,2.44,0,0,1,.41,1.47v3.29h-1.36V72.59c0-.17,0-.34,0-.51a1.21,1.21,0,0,0-.1-.48.71.71,0,0,0-.25-.38,1.11,1.11,0,0,0-1.11,0,1.42,1.42,0,0,0-.36.44,1.84,1.84,0,0,0-.18.56,2.89,2.89,0,0,0-.06.56v2.56h-1.36Z" transform="translate(-0.59 -0.37)"/><path class="cls-2" d="M116,74.79h0a2,2,0,0,1-1.6.71,1.86,1.86,0,0,1-1.69-.84,3.88,3.88,0,0,1,0-3.81,2.1,2.1,0,0,1,3.25-.08h0v-3h1.36v7.6H116Zm-2.39-2a2.64,2.64,0,0,0,.25,1.12,1,1,0,0,0,.35.4.83.83,0,0,0,.55.18.91.91,0,0,0,.58-.18,1.16,1.16,0,0,0,.36-.4,2,2,0,0,0,.2-.55,2.75,2.75,0,0,0,0-.57,2.33,2.33,0,0,0-.27-1.1,1.3,1.3,0,0,0-.37-.4,1,1,0,0,0-.57-.16.94.94,0,0,0-.89.56,2.14,2.14,0,0,0-.18.54,2.74,2.74,0,0,0-.06.56" transform="translate(-0.59 -0.37)"/><path class="cls-2" d="M119,70.43a4.76,4.76,0,0,1,1.82-.39,1.93,1.93,0,0,1,2.24,2.2v.67c0,.5,0,.94,0,1.3s0,.78.07,1.17h-1.2a6.56,6.56,0,0,1-.06-.78h0a1.73,1.73,0,0,1-.68.66,2,2,0,0,1-.93.24,2.1,2.1,0,0,1-1.25-.41A1.32,1.32,0,0,1,118.4,74a1.55,1.55,0,0,1,.27-1,1.43,1.43,0,0,1,.63-.54,2.76,2.76,0,0,1,.86-.25,6.93,6.93,0,0,1,.89,0h.75a1.12,1.12,0,0,0-.29-.88,1.28,1.28,0,0,0-.89-.25,2.66,2.66,0,0,0-1.61.57Zm.73,3.44a.53.53,0,0,0,.25.47,1,1,0,0,0,.61.17,1.13,1.13,0,0,0,1-.47A1.81,1.81,0,0,0,121.8,73H121a1.1,1.1,0,0,0-.25,0,2,2,0,0,0-.49.12.88.88,0,0,0-.38.27.76.76,0,0,0-.16.49" transform="translate(-0.59 -0.37)"/><path class="cls-2" d="M124.82,71.15h-1v-1h1v-1l1.36-.44v1.48h1.2v1h-1.2v2.44a1,1,0,0,0,.13.58.51.51,0,0,0,.5.28,1.12,1.12,0,0,0,.62-.15l0,1.08a3.55,3.55,0,0,1-1,.12,1.5,1.5,0,0,1-1.65-1.69Z" transform="translate(-0.59 -0.37)"/><path class="cls-2" d="M128.34,67.91h1.36v1.3h-1.36Zm0,2.25h1.36v5.22h-1.36Z" transform="translate(-0.59 -0.37)"/><path class="cls-2" d="M130.8,72.8a2.64,2.64,0,0,1,.79-2,2.73,2.73,0,0,1,1.93-.73,2.79,2.79,0,0,1,2,.73,2.8,2.8,0,0,1-4,3.94,2.66,2.66,0,0,1-.71-1.91m1.41-.16c0,.1,0,.21,0,.31s0,.22.05.32a1.88,1.88,0,0,0,.21.59,1.12,1.12,0,0,0,.4.41,1,1,0,0,0,.63.18,1.24,1.24,0,0,0,.66-.17,1.12,1.12,0,0,0,.4-.41,1.66,1.66,0,0,0,.21-.59,4.48,4.48,0,0,0,.05-.64,1.84,1.84,0,0,0-.32-1.08,1.17,1.17,0,0,0-1-.47,1.13,1.13,0,0,0-1,.48,1.71,1.71,0,0,0-.34,1.07" transform="translate(-0.59 -0.37)"/><path class="cls-2" d="M137.32,70.16h1.29v.71h0a2,2,0,0,1,1.71-.83,1.66,1.66,0,0,1,1.36.58,2.44,2.44,0,0,1,.41,1.47v3.29h-1.36V72.59c0-.17,0-.34,0-.51a1.21,1.21,0,0,0-.1-.48.77.77,0,0,0-.25-.38,1.11,1.11,0,0,0-1.11,0,1.42,1.42,0,0,0-.36.44,1.84,1.84,0,0,0-.18.56,2.89,2.89,0,0,0-.06.56v2.56h-1.36Z" transform="translate(-0.59 -0.37)"/><polygon class="cls-2" points="147.14 69.05 145.12 69.05 145.12 67.94 150.59 67.94 150.59 69.05 148.56 69.05 148.56 75.01 147.14 75.01 147.14 69.05"/><path class="cls-2" d="M151.06,70.16h1.2v1.19h0a1.73,1.73,0,0,1,.45-.85,1.29,1.29,0,0,1,1-.46,2.06,2.06,0,0,1,.42,0v1.37a1.31,1.31,0,0,0-.61-.11.85.85,0,0,0-.63.22,1.25,1.25,0,0,0-.33.56,2.93,2.93,0,0,0-.13.68c0,.24,0,.46,0,.66v1.92h-1.35Z" transform="translate(-0.59 -0.37)"/><path class="cls-2" d="M159.76,75.38h-1.29v-.71h0a2.1,2.1,0,0,1-1.71.83,1.56,1.56,0,0,1-1.34-.59,2.32,2.32,0,0,1-.43-1.46V70.16h1.35V73a2,2,0,0,0,0,.23c0,.08,0,.17,0,.25a2.6,2.6,0,0,0,.1.5.8.8,0,0,0,.26.36.72.72,0,0,0,.5.16.93.93,0,0,0,.61-.2,1.07,1.07,0,0,0,.36-.43,1.84,1.84,0,0,0,.18-.56,3.56,3.56,0,0,0,0-.55V70.16h1.36Z" transform="translate(-0.59 -0.37)"/><path class="cls-2" d="M164.26,71.25a5.12,5.12,0,0,0-.57-.17,4,4,0,0,0-.65,0,1.36,1.36,0,0,0-.53.11.52.52,0,0,0-.27.47c0,.2.13.33.38.41a2.77,2.77,0,0,0,.38.14,4.28,4.28,0,0,1,.43.14,3.38,3.38,0,0,1,.44.18,2.11,2.11,0,0,1,.37.28,1.51,1.51,0,0,1,.27.42,1.85,1.85,0,0,1,.09.62,1.45,1.45,0,0,1-.67,1.3,2.8,2.8,0,0,1-1.52.4,6.22,6.22,0,0,1-1.54-.22l.08-1.12a2.79,2.79,0,0,0,1.34.35,1.28,1.28,0,0,0,.58-.15.49.49,0,0,0,.31-.49.59.59,0,0,0-.09-.34.77.77,0,0,0-.27-.19c-.24-.09-.51-.18-.81-.26l-.43-.17a1.46,1.46,0,0,1-.38-.27,1,1,0,0,1-.27-.4,1.43,1.43,0,0,1-.11-.58,1.37,1.37,0,0,1,.64-1.24,2.56,2.56,0,0,1,1.41-.38,6.6,6.6,0,0,1,.83,0l.65.14Z" transform="translate(-0.59 -0.37)"/><path class="cls-2" d="M166.1,71.15h-1v-1h1v-1l1.36-.44v1.48h1.2v1h-1.2v2.44a1,1,0,0,0,.13.58.54.54,0,0,0,.51.28,1.1,1.1,0,0,0,.61-.15l0,1.08a3.55,3.55,0,0,1-1,.12,1.51,1.51,0,0,1-1.65-1.69Z" transform="translate(-0.59 -0.37)"/><path class="cls-3" d="M37.38,65c5.59-.24,9.94-2.18,10.44-3s.13-3.08-2.7-2c-1.15.27-1.77.87-2.91,1.14a15,15,0,0,1-6.83.16,19.57,19.57,0,0,1-4.78-2.06,6,6,0,0,0-1.87-.75c-1.6-.24-2.64,2-1.4,3.33S34.65,65.11,37.38,65Z" transform="translate(-0.59 -0.37)"/><path class="cls-3" d="M51.23,48.13a7.53,7.53,0,0,0,1.19-2.3,9.92,9.92,0,0,0,0-2.93A11.11,11.11,0,0,0,52,41.1a8.82,8.82,0,0,0-.53-1.52,5.85,5.85,0,0,0-2.94-2.76,7.59,7.59,0,0,0-6.38.42,5.72,5.72,0,0,0-1.64,1.25,4.09,4.09,0,0,0-1.05,1.64c-.81,2.94-.51,6.58,1.72,8.85a6,6,0,0,0,4,1.66,7.92,7.92,0,0,0,1.29-.09,7.3,7.3,0,0,0,2.87-.7A5.27,5.27,0,0,0,51.23,48.13Zm-5.1-.53a5,5,0,0,1-1.22-.08,3.07,3.07,0,0,1-1-.3,4.27,4.27,0,0,1-.6-.45,3.74,3.74,0,0,1-1-2,6.86,6.86,0,0,1-.2-1.75,5.87,5.87,0,0,1,0-.59,3.38,3.38,0,0,1,.16-.7,4.07,4.07,0,0,1,1.65-2.07A3.88,3.88,0,0,1,49,41.08a4.53,4.53,0,0,1-.17,5.16A3.86,3.86,0,0,1,46.13,47.6Z" transform="translate(-0.59 -0.37)"/><path class="cls-3" d="M29.11,52.43a16,16,0,0,0,1.79-.77A9.5,9.5,0,0,0,35,45.82a7.38,7.38,0,0,0-.08-4.24,8.44,8.44,0,0,0-3-3.83,5,5,0,0,0-4.23-1,8.34,8.34,0,0,0-4.31,1.81,7.71,7.71,0,0,0-2.49,4.69c-.1.6-.19,1.21-.24,1.82a6.25,6.25,0,0,0,.13,1.55,7.19,7.19,0,0,0,.63,2,7.87,7.87,0,0,0,3.36,3.3,6.22,6.22,0,0,0,2.42.75A4.45,4.45,0,0,0,29.11,52.43Zm-2.46-2.77a2.64,2.64,0,0,1-1.75-.89,8.67,8.67,0,0,1-.77-1,4.41,4.41,0,0,1-.62-1.86,6.2,6.2,0,0,1,.91-4.37,6.35,6.35,0,0,1,2.38-1.88,1.17,1.17,0,0,1,.24-.09,4.3,4.3,0,0,1,3.18.39,4.67,4.67,0,0,1,2.07,3.1,6.11,6.11,0,0,1,0,1.48,7,7,0,0,1-1.07,2.82A4.51,4.51,0,0,1,26.65,49.66Z" transform="translate(-0.59 -0.37)"/><path class="cls-3" d="M55.38,66.38c0-.66-.36-1-.9-.77-.22.1-.64.37-1.35.73s-1.54.77-2.42,1.17c-1.41.64-2.62,1.12-3.44,1.43s-2.19.82-3.76,1.27a35.38,35.38,0,0,1-4.7,1c-5.52.77-10.76-1.45-14.68-3.17a25.62,25.62,0,0,1-4.62-2.54,23,23,0,0,1-3.3-2.84A2.72,2.72,0,0,0,16.36,61a1.45,1.45,0,0,0-.56-1,2.54,2.54,0,0,0-1.88.14c-.67-1.2-1.35-2.54-2-4A47.88,47.88,0,0,1,10.05,51a3.65,3.65,0,0,1,.86.13c.24.07.36.14.67.26a8,8,0,0,0,.91.28,1,1,0,0,0,.7,0,.85.85,0,0,0,.38-.32.71.71,0,0,0,.1-.27c0-.14,0-.89-.95-1.88a7.26,7.26,0,0,0-3.27-1.85,35.26,35.26,0,0,1-.33-6.91s.11-1.91.56-4.57c.14-.83.32-1.56.32-1.56.07-.28.14-.55.22-.83s.18-.6.29-.92a21.09,21.09,0,0,1,.94-2.23,25.7,25.7,0,0,1,1.66-2.94l1.29-1.57a24.26,24.26,0,0,1,5.63-5,29.37,29.37,0,0,1,5.74-2.69c.94-.31,1.79-.49,1.79-.49a16,16,0,0,1,1.6-.23l-.09.37-.12.58-.05.25c-.19,1-.74,4.23.48,5.51,0,0,.87.86,2.64-.59a5.16,5.16,0,0,0,1.43-2.94s.47-2.49.74-3.52.55-2,.55-2l.27-.76a20.68,20.68,0,0,1,2.52.15,20.06,20.06,0,0,1,7,2.22,28.15,28.15,0,0,1,5.8,4.08c1.89,1.69,4.07,4.47,4.69,4.34.25-.06.25-1.48.24-2.76a16,16,0,0,0,0-1.94c-.15-.82-3-3.1-5.18-4.67a37.47,37.47,0,0,0-5.93-3.36l-.68-.28a20.44,20.44,0,0,0-2.25-.75c-1.05-.29-4.47-.7-5.15-.78.13-.46.62-2.26,1-3.69a10.17,10.17,0,0,1,.37-1.1,10.69,10.69,0,0,0,.65-2.18A3.34,3.34,0,0,0,37.43.73,1.67,1.67,0,0,0,36,.4a3.19,3.19,0,0,0-2,1.7,24.76,24.76,0,0,0-2.14,5l-1,3.21c-.44,0-2.9,0-5.59.3h-.09c-2.13.2-6.55.61-8.09,1.77a2.48,2.48,0,0,0-1.19,1.85,1.43,1.43,0,0,0,.52,1.14c.64.53,1.58.39,3.1-.06l.34-.1a32.28,32.28,0,0,1,4.88-1.14,44,44,0,0,1,5.35-.37l-.23.4a26.13,26.13,0,0,0-11,3.24,32.72,32.72,0,0,0-8.55,7.38l-.33.39c-1.37,1.58-3,5.27-4,8.77-.29,1.08-.46,2.32-.55,2.83-.23,1.34-.37,2.41-.41,2.72a33.33,33.33,0,0,0,.44,8.1,4.17,4.17,0,0,0-3.79,2.38l-.18.26c-1.41,2.06-.82,5-.6,5.89a12.57,12.57,0,0,0,4,5.9,9.44,9.44,0,0,0,5.89,2.33,8.6,8.6,0,0,0,1.74-.23c3.91,4.54,8.06,6.26,11.24,7.81S34,75.6,37.62,75.19a47.07,47.07,0,0,0,10.84-2.81A52.45,52.45,0,0,0,55.35,69C55.63,68.74,55.29,68.32,55.38,66.38ZM10.07,60.72a3.35,3.35,0,0,1-1.66-.21l-.15,0a3.06,3.06,0,0,1-.62-.2,4.93,4.93,0,0,1-1.92-1.49,6.65,6.65,0,0,1-1.6-3.37,4.18,4.18,0,0,1,.21-2.32,3.43,3.43,0,0,1,.47-.75,2.68,2.68,0,0,1,1.38-.86l.12,0A46.73,46.73,0,0,0,8,56.31a44.37,44.37,0,0,0,2.12,4.4Z" transform="translate(-0.59 -0.37)"/></svg>