<svg class="border shadow-md" viewBox="0 0 1268.7644444444445 713.68" style="width: 1268.764444px; height: 713.68px;" xmlns="http://www.w3.org/2000/svg" preserveAspectRatio="none"><rect class="bg" id="bg" x="0" y="0" width="1268.7644444444445" height="713.68" fill="#ffffff"></rect><g transform="
        translate(-792.9777777777779
        -346.92777777777786)
        scale(2.25)
                        "><path d="M1032,815Q843,996,637.5,990.5Q432,985,316.5,809.5Q201,634,318,461.5Q435,289,668,230.5Q901,172,1061,403Q1221,634,1032,815Z" fill="#F9F9F9" stroke="none" stroke-width="10"></path></g><g transform="
        translate(-647.0698666666667
        -283.09306666666674)
        scale(2.02)
                        "><path d="M1032,815Q843,996,637.5,990.5Q432,985,316.5,809.5Q201,634,318,461.5Q435,289,668,230.5Q901,172,1061,403Q1221,634,1032,815Z" fill="#eef3ef" stroke="none" stroke-width="10"></path></g><g transform="
        translate(-507.50577777777784
        -222.03377777777783)
        scale(1.80)
                        "><path d="M1032,815Q843,996,637.5,990.5Q432,985,316.5,809.5Q201,634,318,461.5Q435,289,668,230.5Q901,172,1061,403Q1221,634,1032,815Z" fill="#e3ede5" stroke="none" stroke-width="10"></path></g><g transform="
        translate(-361.59786666666673
        -158.1990666666667)
        scale(1.57)
                        "><path d="M1032,815Q843,996,637.5,990.5Q432,985,316.5,809.5Q201,634,318,461.5Q435,289,668,230.5Q901,172,1061,403Q1221,634,1032,815Z" fill="#d8e7db" stroke="none" stroke-width="10"></path></g><g transform="
        translate(-222.03377777777786
        -97.13977777777782)
        scale(1.35)
                        "><path d="M1032,815Q843,996,637.5,990.5Q432,985,316.5,809.5Q201,634,318,461.5Q435,289,668,230.5Q901,172,1061,403Q1221,634,1032,815Z" fill="#cde1d1" stroke="none" stroke-width="10"></path></g><g transform="
        translate(-82.46968888888883
        -36.080488888888866)
        scale(1.13)
                        "><path d="M1032,815Q843,996,637.5,990.5Q432,985,316.5,809.5Q201,634,318,461.5Q435,289,668,230.5Q901,172,1061,403Q1221,634,1032,815Z" fill="#c2dbc7" stroke="none" stroke-width="10"></path></g><g transform="
        translate(63.43822222222221
        27.75422222222222)
        scale(0.90)
                        "><path d="M1032,815Q843,996,637.5,990.5Q432,985,316.5,809.5Q201,634,318,461.5Q435,289,668,230.5Q901,172,1061,403Q1221,634,1032,815Z" fill="#b7d5bd" stroke="none" stroke-width="10"></path></g><g transform="
        translate(203.00231111111108
        88.81351111111111)
        scale(0.68)
                        "><path d="M1032,815Q843,996,637.5,990.5Q432,985,316.5,809.5Q201,634,318,461.5Q435,289,668,230.5Q901,172,1061,403Q1221,634,1032,815Z" fill="#accfb3" stroke="none" stroke-width="10"></path></g><g transform="
        translate(348.9102222222223
        152.64822222222227)
        scale(0.45)
                        "><path d="M1032,815Q843,996,637.5,990.5Q432,985,316.5,809.5Q201,634,318,461.5Q435,289,668,230.5Q901,172,1061,403Q1221,634,1032,815Z" fill="#a1c9a9" stroke="none" stroke-width="10"></path></g><g transform="
        translate(488.47431111111115
        213.70751111111116)
        scale(0.23)
                        "><path d="M1032,815Q843,996,637.5,990.5Q432,985,316.5,809.5Q201,634,318,461.5Q435,289,668,230.5Q901,172,1061,403Q1221,634,1032,815Z" fill="#96c39f" stroke="none" stroke-width="10"></path></g></svg>